<svg xmlns="http://www.w3.org/2000/svg">
    <defs>
        <symbol id="search" width="25" height="24" viewBox="0 0 25 24" fill="none" xmlns="http://www.w3.org/2000/svg">
            <path fill-rule="evenodd" clip-rule="evenodd"
                  d="M10.5001 3.89998C7.13116 3.89998 4.4001 6.63104 4.4001 9.99998C4.4001 13.3689 7.13116 16.1 10.5001 16.1C13.869 16.1 16.6001 13.3689 16.6001 9.99998C16.6001 6.63104 13.869 3.89998 10.5001 3.89998ZM2.6001 9.99998C2.6001 5.63693 6.13705 2.09998 10.5001 2.09998C14.8631 2.09998 18.4001 5.63693 18.4001 9.99998C18.4001 11.8572 17.7592 13.5648 16.6865 14.9136L22.1365 20.3636C22.488 20.7151 22.488 21.2849 22.1365 21.6364C21.785 21.9878 21.2152 21.9878 20.8637 21.6364L15.4137 16.1864C14.0649 17.2591 12.3574 17.9 10.5001 17.9C6.13705 17.9 2.6001 14.363 2.6001 9.99998Z"
                  fill="currentColor"/>
        </symbol>
        <symbol id="chevron-up" viewBox="0 0 24 24" fill="none">
            <path d="M5 15L12 8L19 15" stroke="currentColor" stroke-width="2" stroke-linecap="round" stroke-linejoin="round"/>
        </symbol>
        <symbol id="chevron-down" viewBox="0 0 24 24" fill="none">
            <path fill-rule="evenodd" clip-rule="evenodd" d="M4.29289 8.29289C4.68342 7.90237 5.31658 7.90237 5.70711 8.29289L12 14.5858L18.2929 8.29289C18.6834 7.90237 19.3166 7.90237 19.7071 8.29289C20.0976 8.68342 20.0976 9.31658 19.7071 9.70711L12.7071 16.7071C12.3166 17.0976 11.6834 17.0976 11.2929 16.7071L4.29289 9.70711C3.90237 9.31658 3.90237 8.68342 4.29289 8.29289Z" fill="currentColor"/>
        </symbol>
        <symbol id="chevron-right" viewBox="0 0 24 24" fill="none">
            <path fill-rule="evenodd" clip-rule="evenodd" d="M8.29289 19.7071C7.90237 19.3166 7.90237 18.6834 8.29289 18.2929L14.5858 12L8.29289 5.70711C7.90237 5.31658 7.90237 4.68342 8.29289 4.29289C8.68342 3.90237 9.31658 3.90237 9.70711 4.29289L16.7071 11.2929C17.0976 11.6834 17.0976 12.3166 16.7071 12.7071L9.70711 19.7071C9.31658 20.0976 8.68342 20.0976 8.29289 19.7071Z" fill="currentColor"/>
        </symbol>
        <symbol id="chevron-left" viewBox="0 0 24 24" fill="none">
            <path d="M15 19L8 12L15 5" stroke="currentColor" stroke-width="2" stroke-linecap="round" stroke-linejoin="round"/>
        </symbol>
        <symbol id="close" viewBox="0 0 24 24" fill="none">
            <path d="M6 18L18 6M6 6L18 18" stroke="#1B1927" stroke-width="2" stroke-linecap="round" stroke-linejoin="round"/>
        </symbol>
    </defs>
</svg>
